<?xml version="1.0" encoding="UTF-8" standalone="no"?>
<!-- Created with Inkscape (http://www.inkscape.org/) -->

<svg
   xmlns:dc="http://purl.org/dc/elements/1.1/"
   xmlns:cc="http://creativecommons.org/ns#"
   xmlns:rdf="http://www.w3.org/1999/02/22-rdf-syntax-ns#"
   xmlns:svg="http://www.w3.org/2000/svg"
   xmlns="http://www.w3.org/2000/svg"
   xmlns:sodipodi="http://sodipodi.sourceforge.net/DTD/sodipodi-0.dtd"
   xmlns:inkscape="http://www.inkscape.org/namespaces/inkscape"
   width="30mm"
   height="40mm"
   viewBox="0 0 30 40"
   version="1.1"
   id="svg8"
   inkscape:version="0.92.5 (2060ec1f9f, 2020-04-08)"
   sodipodi:docname="Nav-Logo.svg">
  <defs
     id="defs2">
    <clipPath
       clipPathUnits="userSpaceOnUse"
       id="clipPath55">
      <path
         style="fill:#ff0000;stroke:#000000;stroke-width:0.26458332px;stroke-linecap:butt;stroke-linejoin:miter;stroke-opacity:1"
         d="m 23.920622,274.28209 7.216278,-6.68174 8.68626,4.67722 -1.737252,9.6217 -9.621702,1.73725 z"
         id="path57"
         inkscape:connector-curvature="0" />
    </clipPath>
    <clipPath
       clipPathUnits="userSpaceOnUse"
       id="clipPath72">
      <path
         style="fill:#550000;stroke:#000000;stroke-width:0.26458332px;stroke-linecap:butt;stroke-linejoin:miter;stroke-opacity:1"
         d="m 40.624969,290.4519 2.405425,-9.2208 9.488069,-0.80181 3.741772,8.68626 -7.34991,6.28083 z"
         id="path74"
         inkscape:connector-curvature="0" />
    </clipPath>
    <clipPath
       clipPathUnits="userSpaceOnUse"
       id="clipPath89">
      <path
         style="fill:#ff00ff;stroke:#000000;stroke-width:0.26458332px;stroke-linecap:butt;stroke-linejoin:miter;stroke-opacity:1"
         d="m 49.578498,302.61266 6.815373,-6.68174 8.15172,4.54358 -1.069078,9.08717 -9.621703,1.60362 z"
         id="path91"
         inkscape:connector-curvature="0" />
    </clipPath>
    <clipPath
       clipPathUnits="userSpaceOnUse"
       id="clipPath112">
      <path
         style="fill:#ff0000;stroke:#000000;stroke-width:0.26458332px;stroke-linecap:butt;stroke-linejoin:miter;stroke-opacity:1"
         d="m 28.464206,290.4519 2.010124,-9.23241 9.307663,-0.75595 3.82701,8.78795 -7.134301,6.28385 -8.26823,-5.14992 z"
         id="path114"
         inkscape:connector-curvature="0" />
    </clipPath>
    <clipPath
       clipPathUnits="userSpaceOnUse"
       id="clipPath129">
      <path
         style="fill:#280b0b;stroke:#000000;stroke-width:0.26458332px;stroke-linecap:butt;stroke-linejoin:miter;stroke-opacity:1"
         d="m 17.238884,263.19041 -0.267269,52.11755 -9.0871642,0.26727 0.9354436,4.27632 95.4152156,-0.13364 5.34539,-2.53906 -0.8018,-2.13816 -8.819897,0.13364 0.267267,-53.45391 -2.939961,-1.06908 -78.309973,-0.53453 z"
         id="path131"
         inkscape:connector-curvature="0" />
    </clipPath>
    <clipPath
       clipPathUnits="userSpaceOnUse"
       id="clipPath135">
      <path
         style="fill:#800000;stroke:#000000;stroke-width:0.26458332px;stroke-linecap:butt;stroke-linejoin:miter;stroke-opacity:1"
         d="m 19.544085,261.11906 -0.701583,0.33409 -0.634765,0.66818 -0.545476,0.85687 -0.188989,0.47247 0.02362,52.81036 -8.9178755,0.0354 -0.094494,0.24805 0.011811,0.68508 5.1499255,1.48828 90.170931,-0.33073 4.03964,-1.28748 -0.0236,-0.7087 h -9.047809 l -0.05906,-0.30711 0.236236,-0.14174 0.02363,-52.17252 -0.2008,-0.53153 -0.318918,-0.6024 -0.354354,-0.41341 -0.437034,-0.37798 -0.4016,-0.36617 -0.448847,-0.23623 -0.236233,-0.10631 z"
         id="path137"
         inkscape:connector-curvature="0" />
    </clipPath>
    <clipPath
       clipPathUnits="userSpaceOnUse"
       id="clipPath152">
      <path
         style="fill:#d40000;stroke:#000000;stroke-width:0.26458332px;stroke-linecap:butt;stroke-linejoin:miter;stroke-opacity:1"
         d="m 3.3072917,255.57617 0.2007999,-0.67327 0.2716702,-0.70871 0.2480469,-0.29529 0.3543528,-0.46066 0.2598586,-0.3071 0.2480469,-0.18899 0.2362351,-0.10631 17.4695869,-0.21261 0.47247,0.15355 0.224424,0.16537 0.295293,0.22442 0.248047,0.21261 0.236235,0.21261 0.248047,0.36617 0.153553,0.22442 0.07087,0.23624 0.01181,0.22442 -0.212612,40.01823 -0.09449,0.36616 -0.129929,0.17718 -0.188988,0.2953 -0.12993,0.27166 -0.188988,0.2008 -0.377976,0.21262 -0.437035,0.24804 -0.437035,0.16537 -0.519717,0.0118 -16.1584823,0.0472 -0.4252233,-0.24805 -0.295293,-0.22443 -0.2598587,-0.25986 -0.3661642,-0.30711 -0.2008,-0.35435 -0.2244233,-0.36617 c 0,0 -0.1181177,-0.0709 -0.2716705,-0.43703 -0.1535546,-0.36609 -0.18899,-0.4724 -0.18899,-0.4724 l -0.059059,-0.42522 z"
         id="path154"
         inkscape:connector-curvature="0" />
    </clipPath>
    <clipPath
       clipPathUnits="userSpaceOnUse"
       id="clipPath180">
      <path
         style="fill:#ff0000;stroke:#000000;stroke-width:0.26458332px;stroke-linecap:butt;stroke-linejoin:miter;stroke-opacity:1"
         d="m 3.4490327,285.141 -0.283482,0.0472 -0.5905879,0.88588 -0.4960938,0.81502 -0.578776,1.26385 -0.1637454,0.97926 -0.1169304,0.85192 -0.00835,0.35079 -0.050113,0.68488 0.075169,0.42596 0.1336348,0.41761 0.3424391,0.45102 0.4927782,0.54289 0.492778,0.52619 0.7433435,0.44266 0.534539,0.25892 0.6431174,0.25056 0.7600476,-0.008 2.7395128,-0.0668 0.8185129,-0.15034 c 0,0 0.826865,-0.45937 0.8602734,-0.47608 0.033409,-0.0167 1.1526001,-0.60135 1.1526001,-0.60135 l 7.099347,-2.8481 2.138156,-0.95214 0.693231,-0.15034 0.902034,-0.0585 1.027318,-0.0668 0.651469,-0.0251 0.484426,0.0251 0.593004,0.0167 1.219418,0.30902 0.751697,0.30068 0.801807,0.33409 0.551243,-0.13363 0.300678,-0.41761 -0.03341,-0.66818 -0.434313,-0.30068 -1.586913,-0.81851 -1.5368,-0.33408 -4.142678,-0.13364 -1.319643,0.0167 -0.968852,0.30068 -8.3521732,2.58917 -0.5178348,0.11693 -0.3674954,-0.11693 -0.2004523,-0.31738 -0.2672694,-0.43431 0.1002263,-0.55125 0.1503389,-0.55124 0.1503394,-0.56795 0.033409,-0.4009 -0.3006783,-0.50113 -0.4009043,-0.33409 -0.6180609,-0.45102 -2.0713387,-0.93544 -0.5679478,-0.0501 -0.5512435,0.0167 -0.5679477,0.0668 z"
         id="path182"
         inkscape:connector-curvature="0" />
    </clipPath>
    <clipPath
       clipPathUnits="userSpaceOnUse"
       id="clipPath263">
      <path
         style="fill:#ff0000;stroke:#000000;stroke-width:0.26458332px;stroke-linecap:butt;stroke-linejoin:miter;stroke-opacity:1"
         d="m 2.9293156,292.2753 -0.094494,2.26785 10.3943454,0.85045 21.450149,-1.22842 -0.09449,-2.64584 -9.827382,-0.47247 -21.6391362,0.94494 z"
         id="path265"
         inkscape:connector-curvature="0" />
    </clipPath>
    <clipPath
       clipPathUnits="userSpaceOnUse"
       id="clipPath282">
      <path
         style="fill:#ff2a2a;stroke:#000000;stroke-width:0.26458332px;stroke-linecap:butt;stroke-linejoin:miter;stroke-opacity:1"
         d="M 48.663005,261.9384 59.529821,281.59316 73.04247,275.45105 61.514196,257.02471 Z"
         id="path284"
         inkscape:connector-curvature="0" />
    </clipPath>
    <clipPath
       clipPathUnits="userSpaceOnUse"
       id="clipPath299">
      <path
         style="fill:#aa0000;stroke:#000000;stroke-width:0.26458332px;stroke-linecap:butt;stroke-linejoin:miter;stroke-opacity:1"
         d="m 14.174107,279.61309 c 0,0 0.850446,2.07887 1.228423,2.83482 0.377976,0.75596 2.267857,3.11831 2.267857,3.11831 l -0.283482,1.70089 -0.188989,2.26786 0.472471,3.59077 0.755952,-0.56696 0.09449,-1.51191 -0.188988,-1.22842 0.755952,-1.22842 0.472471,0.18899 c 0,0 0,0.94493 0,1.88987 0,0.94495 0.09449,2.45685 0.09449,2.45685 l 0.377976,0.75595 0.283482,-0.75595 0.283482,-2.17336 v -1.79539 l 0.283482,-0.94494 0.944941,1.03944 v 2.07886 l -0.283482,1.88989 0.661458,0.37797 0.566964,-1.98437 0.09449,-2.07887 v -1.32292 l -0.377976,-1.13393 0.283482,-0.85044 0.566965,-2.07887 0.755952,-1.41741 1.606399,-0.66146 c 0,0 1.511903,0.75595 1.417409,-1.7009 -0.09449,-2.45684 -0.09449,-2.45684 -0.09449,-2.45684 l 0.188989,-1.70089 v -0.85045 l 1.13393,-0.94494 h 1.039434 c 0,0 0.188984,0.0945 1.039432,-1.6064 0.85045,-1.70089 -0.755952,-5.48065 -0.755952,-5.48065 l -1.13393,-1.6064 -0.188984,-1.6064 -0.755957,-1.13393 -1.039434,0.28348 -0.472468,1.03944 0.566964,-4.44122 1.795386,-1.22843 v -1.22842 l -1.795386,-0.37798 0.377976,-5.00818 6.331103,-12.6622 1.322914,-4.7247 -0.09449,-5.48066 -0.566965,-5.29167 -1.039434,-1.13392 -0.566965,3.1183 0.188989,4.91369 -1.039439,3.02381 -0.377973,2.64583 -0.755952,1.13393 -0.944941,2.74033 -1.41741,1.41741 -0.755951,0.56696 0.188986,2.55134 -0.661458,2.07887 -1.322917,1.22843 0.566964,-3.49629 0.755953,-2.07886 0.661458,-1.7009 1.322917,-3.77976 V 233.5 l 0.09449,-3.87426 v -3.87425 l -1.511901,-3.59078 -1.228424,-1.03943 -0.755952,0.75595 0.755952,2.17336 0.75595,3.68527 -0.188984,3.40179 -0.755954,5.66964 -1.228423,0.85045 0.283482,1.32291 -0.755952,1.32292 -0.850446,1.03943 0.377976,0.85045 -0.47247,1.70089 -0.566965,0.75595 v 1.7009 l -0.47247,0.85044 -0.377976,1.41741 0.188988,1.22843 -0.283482,1.5119 -0.47247,1.22842 -0.566965,0.47247 -0.188988,1.22843 -1.417411,0.66146 -1.039434,-0.47247 0.566964,-0.47248 0.188988,-1.79538 -0.566964,-1.03944 -0.188988,-1.03943 -0.661458,-1.51191 -0.283483,-1.60639 v -0.56697 l -0.755952,-1.03943 -0.47247,-1.22842 -0.566964,-2.45685 -0.09449,-2.17336 c 0,0 -0.283483,-1.51191 -0.283483,-1.98438 0,-0.47247 -0.566964,-2.55134 -0.566964,-2.55134 l -0.377976,-2.64583 v -1.51191 l -0.283482,-2.07887 0.188988,-2.07886 0.850446,-3.11831 0.377976,-2.64583 -0.188988,-1.13393 -1.984375,0.37798 -1.41741,4.15773 0.09449,1.41742 -0.188988,1.98437 v 3.40179 l 0.09449,1.5119 -0.283482,2.92932 v 2.17336 l 0.283482,2.45684 -0.755953,-0.75595 -0.188988,-2.26785 -0.661458,-1.98438 -0.5669644,-2.83482 -0.6614583,-4.7247 -0.1889882,-3.40179 -0.6614583,-0.85045 -0.1889882,-0.18898 -0.850446,3.68526 v 7.27605 3.59077 l 1.3229167,3.96875 1.1339282,2.64583 1.7953865,3.87426 1.795388,3.77976 0.283482,3.1183 0.188988,1.6064 -1.511905,1.51191 -0.377976,1.13393 1.606398,0.85044 -0.377976,3.11831 -1.228422,2.92931 -1.133929,2.26786 v 1.6064 l 0.47247,2.36235 0.944941,2.07887 1.700893,-0.18899 -0.188988,2.92932 0.47247,1.60639 0.09449,1.32292 z"
         id="path301"
         inkscape:connector-curvature="0" />
    </clipPath>
  </defs>
  <sodipodi:namedview
     id="base"
     pagecolor="#ffffff"
     bordercolor="#666666"
     borderopacity="1.0"
     inkscape:pageopacity="0.0"
     inkscape:pageshadow="2"
     inkscape:zoom="1.979899"
     inkscape:cx="141.02418"
     inkscape:cy="117.09769"
     inkscape:document-units="mm"
     inkscape:current-layer="layer1"
     showgrid="false"
     inkscape:window-width="1366"
     inkscape:window-height="705"
     inkscape:window-x="-8"
     inkscape:window-y="-8"
     inkscape:window-maximized="1" />
  <metadata
     id="metadata5">
    <rdf:RDF>
      <cc:Work
         rdf:about="">
        <dc:format>image/svg+xml</dc:format>
        <dc:type
           rdf:resource="http://purl.org/dc/dcmitype/StillImage" />
        <dc:title></dc:title>
      </cc:Work>
    </rdf:RDF>
  </metadata>
  <g
     inkscape:label="Capa 1"
     inkscape:groupmode="layer"
     id="layer1"
     transform="translate(0,-257)">
    <path
       style="fill:#ffffff;stroke-width:0.50507629"
       d=""
       id="path346"
       inkscape:connector-curvature="0"
       transform="matrix(0.26458333,0,0,0.26458333,0,223)" />
    <path
       style="fill:#ffffff;stroke-width:0.50507629"
       d=""
       id="path372"
       inkscape:connector-curvature="0"
       transform="matrix(0.26458333,0,0,0.26458333,0,223)" />
    <path
       style="fill:#ffffff;stroke-width:0.50507629"
       d=""
       id="path374"
       inkscape:connector-curvature="0"
       transform="matrix(0.26458333,0,0,0.26458333,0,223)" />
    <path
       style="fill:#ffffff;stroke-width:0.50507629"
       d=""
       id="path378"
       inkscape:connector-curvature="0"
       transform="matrix(0.26458333,0,0,0.26458333,0,223)" />
    <path
       style="fill:#ffffff;stroke-width:0.50507629"
       d=""
       id="path386"
       inkscape:connector-curvature="0"
       transform="matrix(0.26458333,0,0,0.26458333,0,223)" />
    <path
       style="fill:#ffffff;stroke-width:0.50507629"
       d=""
       id="path426"
       inkscape:connector-curvature="0"
       transform="matrix(0.26458333,0,0,0.26458333,0,223)" />
    <path
       style="fill:#ffffff;stroke-width:0.50507629"
       d=""
       id="path428"
       inkscape:connector-curvature="0"
       transform="matrix(0.26458333,0,0,0.26458333,0,223)" />
    <path
       style="fill:#ffffff;stroke-width:0.50507629"
       d=""
       id="path430"
       inkscape:connector-curvature="0"
       transform="matrix(0.26458333,0,0,0.26458333,0,223)" />
    <path
       style="fill:#ffffff;stroke-width:0.50507629"
       d=""
       id="path432"
       inkscape:connector-curvature="0"
       transform="matrix(0.26458333,0,0,0.26458333,0,223)" />
    <path
       style="fill:#ffffff;stroke-width:0.50507629"
       d=""
       id="path448"
       inkscape:connector-curvature="0"
       transform="matrix(0.26458333,0,0,0.26458333,0,223)" />
    <path
       style="fill:#ffffff;stroke-width:0.50507629"
       d=""
       id="path450"
       inkscape:connector-curvature="0"
       transform="matrix(0.26458333,0,0,0.26458333,0,223)" />
    <path
       style="fill:#ffffff;stroke-width:0.50507629"
       d=""
       id="path470"
       inkscape:connector-curvature="0"
       transform="matrix(0.26458333,0,0,0.26458333,0,223)" />
    <path
       style="fill:#ffffff;stroke-width:0.50507629"
       d=""
       id="path474"
       inkscape:connector-curvature="0"
       transform="matrix(0.26458333,0,0,0.26458333,0,223)" />
    <path
       style="fill:#ffffff;stroke-width:0.50507629"
       d=""
       id="path478"
       inkscape:connector-curvature="0"
       transform="matrix(0.26458333,0,0,0.26458333,0,223)" />
    <path
       style="fill:#ffffff;stroke-width:0.50507629"
       d=""
       id="path488"
       inkscape:connector-curvature="0"
       transform="matrix(0.26458333,0,0,0.26458333,0,223)" />
    <path
       style="fill:#ffffff;stroke-width:0.50507629"
       d=""
       id="path490"
       inkscape:connector-curvature="0"
       transform="matrix(0.26458333,0,0,0.26458333,0,223)" />
    <path
       style="fill:#ffffff;stroke-width:0.50507629"
       d=""
       id="path492"
       inkscape:connector-curvature="0"
       transform="matrix(0.26458333,0,0,0.26458333,0,223)" />
    <path
       style="fill:#ffffff;stroke-width:0.50507629"
       d=""
       id="path496"
       inkscape:connector-curvature="0"
       transform="matrix(0.26458333,0,0,0.26458333,0,223)" />
    <path
       style="fill:#ffffff;stroke-width:0.50507629"
       d=""
       id="path498"
       inkscape:connector-curvature="0"
       transform="matrix(0.26458333,0,0,0.26458333,0,223)" />
    <path
       style="fill:#ffffff;stroke-width:0.50507629"
       d=""
       id="path500"
       inkscape:connector-curvature="0"
       transform="matrix(0.26458333,0,0,0.26458333,0,223)" />
    <path
       style="fill:#ffffff;stroke-width:0.50507629"
       d=""
       id="path506"
       inkscape:connector-curvature="0"
       transform="matrix(0.26458333,0,0,0.26458333,0,223)" />
    <path
       style="fill:#ffffff;stroke-width:0.50507629"
       d=""
       id="path508"
       inkscape:connector-curvature="0"
       transform="matrix(0.26458333,0,0,0.26458333,0,223)" />
    <path
       style="fill:#ffffff;stroke-width:0.50507629"
       d=""
       id="path510"
       inkscape:connector-curvature="0"
       transform="matrix(0.26458333,0,0,0.26458333,0,223)" />
    <path
       style="fill:#ffffff;stroke-width:0.50507629"
       d=""
       id="path512"
       inkscape:connector-curvature="0"
       transform="matrix(0.26458333,0,0,0.26458333,0,223)" />
    <path
       style="fill:#ffffff;stroke-width:0.50507629"
       d=""
       id="path522"
       inkscape:connector-curvature="0"
       transform="matrix(0.26458333,0,0,0.26458333,0,223)" />
    <path
       style="fill:#ffffff;stroke-width:0.50507629"
       d=""
       id="path524"
       inkscape:connector-curvature="0"
       transform="matrix(0.26458333,0,0,0.26458333,0,223)" />
    <path
       style="fill:#ffffff;stroke-width:0.50507629"
       d=""
       id="path528"
       inkscape:connector-curvature="0"
       transform="matrix(0.26458333,0,0,0.26458333,0,223)" />
    <path
       style="fill:#ffffff;stroke-width:0.50507629"
       d=""
       id="path530"
       inkscape:connector-curvature="0"
       transform="matrix(0.26458333,0,0,0.26458333,0,223)" />
    <g
       id="g641"
       transform="matrix(0.64819063,0,0,0.64819063,6.1653944,102.04114)">
      <path
         inkscape:connector-curvature="0"
         id="path368"
         d="m -11.585249,287.37925 c 0.222303,-0.0883 0.367496,-0.24718 0.367496,-0.40212 0,-0.21658 -0.09803,-0.25602 -0.634765,-0.25539 -0.811623,10e-4 -1.657232,0.22767 -1.869507,0.50124 -0.09111,0.11742 -0.206005,0.17315 -0.255313,0.12385 -0.141631,-0.14164 0.337763,-0.59303 0.731489,-0.68877 0.196713,-0.0478 0.568135,-0.2208 0.825382,-0.38436 0.257249,-0.16357 0.808868,-0.40207 1.225825,-0.52999 0.416957,-0.12793 0.931823,-0.39635 1.144146,-0.59651 l 0.3860452,-0.36391 0.6918457,0.26727 c 0.9347782,0.36112 0.917747,0.60505 -0.035375,0.50668 -0.8022272,-0.0828 -1.5415999,0.1347 -1.5415999,0.45347 0,0.15285 0.214318,0.18902 1.035669,0.1748 1.4252151,-0.0247 1.4323827,-0.0182 0.3071521,0.27638 -0.6218396,0.16281 -1.1283921,0.38776 -1.3488961,0.59901 -0.210643,0.20181 -0.56371,0.36373 -0.875099,0.40132 -0.487804,0.0589 -0.497922,0.0534 -0.154495,-0.083 z"
         style="fill:#ffffff;stroke-width:0.13363476" />
      <path
         inkscape:connector-curvature="0"
         id="path632"
         d="m 17.631208,284.90742 c 0.936186,-0.74622 2.265754,-2.15673 2.860738,-3.03491 0.733335,-1.08238 1.510086,-2.73732 1.889107,-4.02492 0.419313,-1.42447 0.524584,-5.52937 0.192854,-7.52007 -0.240001,-1.44025 -0.401364,-1.93625 -0.509809,-1.5671 -0.03239,0.11025 -0.130713,0.59134 -0.218503,1.06908 -0.474481,2.58207 -2.366205,4.40958 -4.564794,4.40984 -0.765206,9e-5 -0.954231,-0.0522 -1.427639,-0.39516 -1.182514,-0.85661 -1.753876,-2.58407 -1.858266,-5.6183 -0.04802,-1.39579 -0.0071,-2.32706 0.146153,-3.32989 0.117049,-0.76571 0.178709,-1.4263 0.137025,-1.46799 -0.206087,-0.20609 -1.571703,2.0585 -2.022474,3.35385 -0.454784,1.30687 -0.674013,2.63752 -0.778003,4.72223 -0.04755,0.95321 -0.144817,1.92479 -0.216152,2.15907 -0.300306,0.98627 -1.255572,1.63702 -2.4109851,1.64244 -1.524477,0.007 -2.117243,-0.63121 -3.070317,-3.30643 -0.228743,-0.64207 -0.463207,-1.2199 -0.521032,-1.28406 -0.275657,-0.30588 -0.421981,1.02495 -0.359735,3.27183 0.05408,1.95204 0.121333,2.54047 0.420343,3.6777 0.464352,1.76607 1.267905,3.81772 2.104302,5.37274 0.369061,0.68615 0.638133,1.28044 0.597938,1.32063 -0.13717,0.13717 -2.028181,-1.04495 -2.998236,-1.87428 -2.476829,-2.11751 -3.969929,-4.54431 -4.71551201,-7.66431 -0.252596,-1.05703 -0.275376,-1.4555 -0.216515,-3.7872 0.05909,-2.34062 0.106596,-2.76231 0.466743,-4.14267 0.46987101,-1.80092 1.17008201,-3.47694 2.28255501,-5.4635 1.272902,-2.27304 1.414265,-2.78828 1.415839,-5.16047 0.0014,-2.08275 -0.09646,-2.75888 -0.691538,-4.77867 -0.189675,-0.6438 -0.306966,-1.20844 -0.260645,-1.25476 0.236304,-0.23631 2.604545,1.98673 3.375167,3.16823 1.235685,1.89451 1.483651,3.52512 0.941916,6.19401 -0.53654,2.64329 -0.459372,3.28274 0.453103,3.7546 0.845895,0.43743 1.748888,0.10522 2.1444091,-0.78892 0.138366,-0.3128 0.349699,-1.13539 0.469628,-1.82799 0.449327,-2.59488 -0.125577,-5.1055 -1.7878011,-7.80737 -1.525943,-2.48035 -2.030424,-4.00501 -2.030424,-6.13644 0,-1.56503 0.234775,-2.56381 0.945407,-4.02193 0.522732,-1.07257 1.881065,-2.92255 2.3305641,-3.1741 0.207579,-0.11616 0.227707,-0.0918 0.152613,0.18486 -0.04758,0.17527 -0.124569,1.19064 -0.171092,2.25638 -0.1787951,4.09576 0.757326,6.01356 2.935351,6.01356 2.062055,0 3.02386,-1.77664 2.65735,-4.90865 -0.08337,-0.71249 -0.118503,-1.32773 -0.07806,-1.36721 0.122214,-0.11932 1.389167,1.33411 2.068185,2.37259 1.156537,1.76877 1.762267,3.76324 1.773936,5.84098 0.009,1.60111 -0.22316,2.71708 -1.011164,4.86072 -0.36132,0.98292 -0.774027,2.27583 -0.917126,2.87315 -0.566681,2.3654 -0.666277,5.69437 -0.192019,6.41817 0.306893,0.46838 1.105821,0.75619 1.716661,0.61843 0.632965,-0.14276 0.871681,-0.34784 1.171115,-1.00609 0.342963,-0.75395 0.312982,-1.93216 -0.09993,-3.9269 -0.737593,-3.56326 -0.08695,-5.81827 2.356728,-8.16803 0.855924,-0.82303 2.003619,-1.61369 1.999262,-1.37732 -0.0011,0.0598 -0.152558,0.58986 -0.336566,1.17785 -0.703558,2.24819 -0.940253,5.37484 -0.53648,7.08669 0.104543,0.44322 0.636057,1.71655 1.181143,2.82961 1.63531,3.33929 2.511129,6.38459 2.778536,9.66119 0.176119,2.15806 0.07837,3.53702 -0.357286,5.04038 -1.230196,4.24515 -4.626122,7.64872 -8.970311,8.9905 -1.170495,0.36153 -1.258202,0.34007 -0.636259,-0.15567 z"
         style="fill:#ff6600;stroke-width:0.13363476" />
      <path
         inkscape:connector-curvature="0"
         id="path636"
         d="m -4.9352901,297.83151 c -1.67175,-0.59606 -2.248891,-2.93345 -1.051312,-4.25776 0.385783,-0.4266 0.977005,-0.66024 6.67664199,-2.6385 3.03183801,-1.0523 5.51243401,-1.95134 5.51243401,-1.99787 0,-0.0465 -2.570799,-0.97513 -5.71288601,-2.06358 -3.14208799,-1.08844 -5.90217099,-2.11972 -6.13351899,-2.29173 -0.865918,-0.64382 -1.216128,-2.04131 -0.775702,-3.0954 0.408531,-0.97775 1.025412,-1.41414 2.198595,-1.55532 0.70218,-0.0845 0.994503,0.002 6.548104,1.93123 3.197211,1.11082 7.298783,2.52381 9.1146041,3.13998 l 3.301494,1.1203 1.308905,-0.46062 c 0.719899,-0.25335 4.736639,-1.6465 8.926089,-3.0959 7.027854,-2.43138 7.682756,-2.63355 8.46474,-2.61302 0.978903,0.0257 1.472033,0.26367 2.063941,0.99602 0.287398,0.35559 0.418875,0.68425 0.464762,1.16179 0.101769,1.05914 -0.05381,1.56317 -0.677141,2.19381 -0.541779,0.54813 -0.758298,0.63576 -6.331114,2.56234 -3.173583,1.09714 -5.746226,2.03351 -5.716986,2.08082 0.06333,0.10247 0.657342,0.31715 6.409015,2.31619 5.161475,1.79391 5.258165,1.83238 5.630436,2.24031 0.677728,0.74263 0.921163,1.96012 0.575077,2.87611 -0.316526,0.83776 -1.459838,1.6366 -2.351201,1.6428 -0.378717,0.003 -4.805122,-1.46397 -15.265235,-5.05781 l -3.526472,-1.21162 -5.0929701,1.74794 c -8.84746601,3.03649 -13.362656,4.52461 -13.710027,4.51855 -0.18506,-0.003 -0.567683,-0.0883 -0.850273,-0.18906 z"
         style="fill:#d45500;stroke-width:0.13363476" />
    </g>
  </g>
</svg>
